<mxfile host="65bd71144e">
    <diagram id="D6pkl9RRAdB0jxwl9CHi" name="Page-1">
        <mxGraphModel dx="817" dy="779" grid="1" gridSize="10" guides="1" tooltips="1" connect="1" arrows="1" fold="1" page="1" pageScale="1" pageWidth="100" pageHeight="100" background="#ffffff" math="0" shadow="0">
            <root>
                <mxCell id="0"/>
                <mxCell id="1" parent="0"/>
                <mxCell id="2" value="" style="line;strokeWidth=2;html=1;rotation=-90;opacity=40;" vertex="1" parent="1">
                    <mxGeometry x="320" y="90" width="160" height="10" as="geometry"/>
                </mxCell>
                <mxCell id="3" value="" style="line;strokeWidth=2;html=1;rotation=0;opacity=30;" vertex="1" parent="1">
                    <mxGeometry x="320" y="95" width="160" height="10" as="geometry"/>
                </mxCell>
                <mxCell id="36" value="" style="curved=1;endArrow=classic;html=1;endFill=1;strokeWidth=2;" edge="1" parent="1">
                    <mxGeometry width="50" height="50" relative="1" as="geometry">
                        <mxPoint x="320" y="160" as="sourcePoint"/>
                        <mxPoint x="480" y="40" as="targetPoint"/>
                        <Array as="points">
                            <mxPoint x="410" y="150"/>
                            <mxPoint x="440" y="100"/>
                            <mxPoint x="380" y="100"/>
                            <mxPoint x="390" y="50"/>
                        </Array>
                    </mxGeometry>
                </mxCell>
                <mxCell id="37" value="" style="line;strokeWidth=2;html=1;rotation=-90;fillColor=#f8cecc;strokeColor=#b85450;" vertex="1" parent="1">
                    <mxGeometry x="340" y="90" width="160" height="10" as="geometry"/>
                </mxCell>
            </root>
        </mxGraphModel>
    </diagram>
</mxfile>